# xmcd
#
# Track frame offsets: 
#        150
#        21662
#        41945
#        96500
#        121162
#        132405
#        148102
#        170872
#        189407
#
# Disc length: 3137 seconds
#
# Revision: 1
# Processed by: cddbd v1.5.2PL0 Copyright (c) Steve Scherf et al.
# Submitted via: ExactAudioCopy v1.0b2
#
DISCID=8e0c3f09
DTITLE=Stevie Ray Vaughan And Double Trouble - In Memoriam CD2
DYEAR=1900
DGENRE=Blues
TTITLE0=Say What
TTITLE1=Testify
TTITLE2=Voodoo Chile (Slight Return)
TTITLE3=The Things (That) I Used To Do
TTITLE4=Honey Bee
TTITLE5=Mary Had A Little Lamb
TTITLE6=Couldn't Stand The Weather
TTITLE7=Cold Shot
TTITLE8=Tin Pan Alley
EXTD=
EXTT0=
EXTT1=
EXTT2=
EXTT3=
EXTT4=
EXTT5=
EXTT6=
EXTT7=
EXTT8=
PLAYORDER=
